#N canvas -8 -8 1366 725 10;
#X obj 250 90 inlet;
#X msg 250 111 1;
#X obj 250 132 metro 200;
#X obj 298 163 del 100;
#X obj 250 208 outlet;
#X obj 344 97 r reset;
#X msg 344 118 0;
#X msg 298 184 72 0;
#X obj 215 229 s globaltick;
#X msg 250 163 72 20;
#X connect 0 0 1 0;
#X connect 1 0 2 0;
#X connect 2 0 9 0;
#X connect 2 0 3 0;
#X connect 2 0 8 0;
#X connect 3 0 7 0;
#X connect 5 0 6 0;
#X connect 6 0 2 0;
#X connect 7 0 4 0;
#X connect 9 0 4 0;
