#N canvas -8 -8 1366 725 10;
#X obj 815 39 cnv 15 300 175 empty empty Metro_C's 20 12 0 14 -233017
-66577 0;
#X obj 101 101 cnv 15 660 360 empty empty empty 20 12 0 14 -233017
-66577 0;
#X obj 113 124 bng 30 250 50 0 start null empty 17 7 0 10 -204786 -1
-1;
#X obj 149 124 bng 30 250 50 0 reset empty empty 17 7 0 10 -261234
-1 -1;
#X obj 825 60 incMetrobeep;
#X obj 825 160 pan~ 0;
#X obj 825 181 throw~ \$0_left;
#X obj 915 181 throw~ \$0_right;
#X obj 878 120 loadbang;
#X msg 878 141 0;
#X obj 133 749 pan~ 0;
#X obj 133 770 throw~ \$0_left;
#X obj 223 770 throw~ \$0_right;
#X obj 256 697 loadbang;
#X msg 256 718 -15;
#X obj 463 769 pan~ 0;
#X obj 463 790 throw~ \$0_left;
#X obj 553 790 throw~ \$0_right;
#X obj 576 717 loadbang;
#X obj 790 748 pan~ 0;
#X obj 790 769 throw~ \$0_left;
#X obj 880 769 throw~ \$0_right;
#X obj 893 697 loadbang;
#X obj 1080 749 pan~ 0;
#X obj 1080 770 throw~ \$0_left;
#X obj 1170 770 throw~ \$0_right;
#X obj 1183 697 loadbang;
#X msg 893 718 -30;
#X msg 576 738 15;
#X obj 791 655 pack f f;
#X obj 1081 654 pack f f;
#X obj 133 960 pan~ 0;
#X obj 133 981 throw~ \$0_left;
#X obj 223 981 throw~ \$0_right;
#X obj 226 908 loadbang;
#X msg 226 929 -15;
#X obj 413 960 pan~ 0;
#X obj 413 981 throw~ \$0_left;
#X obj 503 981 throw~ \$0_right;
#X obj 496 908 loadbang;
#X obj 132 1132 pan~ 0;
#X obj 132 1153 throw~ \$0_left;
#X obj 222 1153 throw~ \$0_right;
#X obj 225 1090 loadbang;
#X obj 415 1158 pan~ 0;
#X obj 415 1179 throw~ \$0_left;
#X obj 505 1179 throw~ \$0_right;
#X obj 448 1116 loadbang;
#X msg 225 1111 -30;
#X msg 496 929 15;
#X msg 448 1137 30;
#X obj 133 1075 pack f f;
#X obj 416 1073 pack f f;
#X obj 414 867 pack f f;
#X obj 133 1043 expr $i1-36 \; $i2;
#X obj 820 21 tgl 15 0 empty empty empty 17 7 0 10 -262144 -1 -1 0
1;
#X obj 825 79 inc_fmsynth~ 2 0.2 1 1 50 0.2 30 1 50 0.25 10;
#X obj 134 676 inc_fmsynth~ 0.5 0.25 3 15 50 0.8 300 15 50 0.25 300
;
#X obj 464 676 inc_fmsynth~ 0.5 0.25 3 15 50 0.8 300 15 50 0.25 300
;
#X obj 134 697 lop~ 350;
#X obj 133 1096 inc_clarinet~;
#X obj 757 962 pan~ 0;
#X obj 757 983 throw~ \$0_left;
#X obj 847 983 throw~ \$0_right;
#X obj 861 915 loadbang;
#X obj 1084 973 pan~ 0;
#X obj 1084 994 throw~ \$0_left;
#X obj 1174 994 throw~ \$0_right;
#X obj 1190 914 loadbang;
#X obj 759 1123 pan~ 0;
#X obj 759 1144 throw~ \$0_left;
#X obj 849 1144 throw~ \$0_right;
#X obj 852 1081 loadbang;
#X obj 1085 1159 pan~ 0;
#X obj 1085 1180 throw~ \$0_left;
#X obj 1175 1180 throw~ \$0_right;
#X obj 1118 1117 loadbang;
#X obj 759 1077 pack f f;
#X obj 1086 1075 pack f f;
#X obj 758 874 pack f f;
#X obj 1085 873 pack f f;
#X obj 759 1100 inc_clarinet~;
#X obj 777 1216 vsl 15 128 0 127 0 0 empty empty empty 0 -9 0 10 -262144
-1 -1 0 1;
#X obj 1085 893 inc_fmsynth~ 50 0 0.25 30 30 1 200 100 100 0.25 200
;
#X msg 852 1102 30;
#X msg 1118 1138 -30;
#X msg 861 935 -35;
#X obj 1085 841 expr $i1+12 \; $i2;
#X obj 189 46 loadbang;
#X obj 1085 914 *~ 0.5;
#X obj 1121 39 cnv 15 200 175 empty empty Catch_to_DAC 20 12 0 14 -233017
-66577 0;
#X obj 1129 68 catch~ \$0_left;
#X obj 1219 68 catch~ \$0_right;
#X obj 1176 168 dac~;
#X obj 1128 168 outlet~;
#X obj 1206 168 outlet~;
#X obj 916 366 s \$0_inst1;
#X obj 986 366 s \$0_inst2;
#X obj 1059 366 s \$0_inst3;
#X obj 1132 366 s \$0_inst4;
#X obj 916 386 s \$0_inst5;
#X obj 986 386 s \$0_inst6;
#X obj 1059 386 s \$0_inst7;
#X obj 1132 386 s \$0_inst8;
#X obj 134 655 r \$0_inst1;
#X obj 464 604 r \$0_inst2;
#X obj 791 602 r \$0_inst3;
#X obj 1081 602 r \$0_inst4;
#X obj 414 814 r \$0_inst6;
#X obj 758 821 r \$0_inst7;
#X obj 1085 821 r \$0_inst8;
#X obj 133 1022 r \$0_inst9;
#X obj 416 1020 r \$0_inst10;
#X obj 759 1024 r \$0_inst11;
#X obj 1086 1023 r \$0_inst12;
#X obj 414 887 inc_fmsynth~ 16 0 4.5 1 50 1 30 1 80 0.02 10;
#X obj 416 1041 expr $i1-24 \; $i2;
#X obj 1087 1043 expr $i1-24 \; $i2;
#X obj 1081 697 *~ 0.4;
#X msg 192 67 \; pd dsp 1;
#X obj 1159 142 rev3~ 100 65 3000 20;
#X obj 416 1095 inc_fmsynth~ 16 0 4.5 1 50 1 30 1 80 0.02 10;
#X obj 1086 1096 inc_fmsynth~ 16 0 4.5 1 50 1 30 1 80 0.02 10;
#X obj 749 25 r start;
#X obj 341 537 ctlin;
#X floatatom 349 569 5 0 0 0 - - -;
#X obj 113 161 incPatterns 37;
#X obj 275 161 incPatterns 38;
#X obj 437 161 incPatterns 39;
#X obj 599 161 incPatterns 40;
#X obj 113 312 incPatterns 33;
#X obj 275 312 incPatterns 34;
#X obj 437 312 incPatterns 35;
#X obj 599 312 incPatterns 36;
#X obj 134 718 *~;
#N canvas -8 -8 1366 725 ctlvolumes 0;
#X obj 188 62 ctlin 1;
#X obj 188 104 / 127;
#X msg 188 125 \$1 60;
#X obj 188 146 line~;
#X obj 188 188 s~ vol1;
#X obj 236 62 loadbang;
#X msg 236 83 127;
#X obj 298 104 / 127;
#X msg 298 125 \$1 60;
#X obj 298 146 line~;
#X obj 346 62 loadbang;
#X msg 346 83 127;
#X obj 408 104 / 127;
#X msg 408 125 \$1 60;
#X obj 408 146 line~;
#X obj 456 62 loadbang;
#X msg 456 83 127;
#X obj 518 104 / 127;
#X msg 518 125 \$1 60;
#X obj 518 146 line~;
#X obj 566 62 loadbang;
#X msg 566 83 127;
#X obj 188 255 / 127;
#X msg 188 276 \$1 60;
#X obj 188 297 line~;
#X obj 236 213 loadbang;
#X msg 236 234 127;
#X obj 298 255 / 127;
#X msg 298 276 \$1 60;
#X obj 298 297 line~;
#X obj 346 213 loadbang;
#X msg 346 234 127;
#X obj 408 255 / 127;
#X msg 408 276 \$1 60;
#X obj 408 297 line~;
#X obj 456 213 loadbang;
#X msg 456 234 127;
#X obj 518 255 / 127;
#X msg 518 276 \$1 60;
#X obj 518 297 line~;
#X obj 566 213 loadbang;
#X msg 566 234 127;
#X obj 298 62 ctlin 2;
#X obj 298 188 s~ vol2;
#X obj 408 62 ctlin 3;
#X obj 408 188 s~ vol3;
#X obj 518 62 ctlin 4;
#X obj 518 188 s~ vol4;
#X obj 188 213 ctlin 5;
#X obj 298 213 ctlin 6;
#X obj 408 213 ctlin 7;
#X obj 518 213 ctlin 8;
#X obj 188 339 s~ vol5;
#X obj 298 339 s~ vol6;
#X obj 408 339 s~ vol7;
#X obj 518 339 s~ vol8;
#X obj 188 167 lop~ 4;
#X obj 298 167 lop~ 4;
#X obj 408 167 lop~ 4;
#X obj 518 167 lop~ 4;
#X obj 188 318 lop~ 4;
#X obj 298 318 lop~ 4;
#X obj 408 318 lop~ 4;
#X obj 518 318 lop~ 4;
#X obj 698 105 / 127;
#X msg 698 126 \$1 60;
#X obj 698 147 line~;
#X obj 746 63 loadbang;
#X msg 746 84 127;
#X obj 698 168 lop~ 4;
#X obj 698 63 ctlin 9;
#X obj 698 189 s~ vol9;
#X obj 698 255 / 127;
#X msg 698 276 \$1 60;
#X obj 698 297 line~;
#X obj 756 213 loadbang;
#X msg 756 234 127;
#X obj 698 318 lop~ 4;
#X obj 698 213 ctlin 10;
#X obj 698 339 s~ vol10;
#X connect 0 0 1 0;
#X connect 1 0 2 0;
#X connect 2 0 3 0;
#X connect 3 0 56 0;
#X connect 5 0 6 0;
#X connect 6 0 1 0;
#X connect 7 0 8 0;
#X connect 8 0 9 0;
#X connect 9 0 57 0;
#X connect 10 0 11 0;
#X connect 11 0 7 0;
#X connect 12 0 13 0;
#X connect 13 0 14 0;
#X connect 14 0 58 0;
#X connect 15 0 16 0;
#X connect 16 0 12 0;
#X connect 17 0 18 0;
#X connect 18 0 19 0;
#X connect 19 0 59 0;
#X connect 20 0 21 0;
#X connect 21 0 17 0;
#X connect 22 0 23 0;
#X connect 23 0 24 0;
#X connect 24 0 60 0;
#X connect 25 0 26 0;
#X connect 26 0 22 0;
#X connect 27 0 28 0;
#X connect 28 0 29 0;
#X connect 29 0 61 0;
#X connect 30 0 31 0;
#X connect 31 0 27 0;
#X connect 32 0 33 0;
#X connect 33 0 34 0;
#X connect 34 0 62 0;
#X connect 35 0 36 0;
#X connect 36 0 32 0;
#X connect 37 0 38 0;
#X connect 38 0 39 0;
#X connect 39 0 63 0;
#X connect 40 0 41 0;
#X connect 41 0 37 0;
#X connect 42 0 7 0;
#X connect 44 0 12 0;
#X connect 46 0 17 0;
#X connect 48 0 22 0;
#X connect 49 0 27 0;
#X connect 50 0 32 0;
#X connect 51 0 37 0;
#X connect 56 0 4 0;
#X connect 57 0 43 0;
#X connect 58 0 45 0;
#X connect 59 0 47 0;
#X connect 60 0 52 0;
#X connect 61 0 53 0;
#X connect 62 0 54 0;
#X connect 63 0 55 0;
#X connect 64 0 65 0;
#X connect 65 0 66 0;
#X connect 66 0 69 0;
#X connect 67 0 68 0;
#X connect 68 0 64 0;
#X connect 69 0 71 0;
#X connect 70 0 64 0;
#X connect 72 0 73 0;
#X connect 73 0 74 0;
#X connect 74 0 77 0;
#X connect 75 0 76 0;
#X connect 76 0 72 0;
#X connect 77 0 79 0;
#X connect 78 0 72 0;
#X restore 1158 191 pd ctlvolumes;
#X obj 201 701 r~ vol1;
#X obj 463 749 *~;
#X obj 522 719 r~ vol2;
#X obj 791 718 *~;
#X obj 838 701 r~ vol3;
#X obj 1126 700 r~ vol4;
#X obj 1081 718 *~;
#X obj 134 938 *~;
#X obj 158 913 r~ vol5;
#X obj 414 938 *~;
#X obj 437 913 r~ vol6;
#X obj 758 936 *~;
#X obj 808 916 r~ vol7;
#X obj 1085 935 *~;
#X obj 1134 917 r~ vol8;
#X obj 1081 676 inc_fmsynth~ 50 0 0.25 30 30 1 200 100 100 0.25 200
;
#X obj 414 835 expr $i1-24 \; $i2;
#X text 499 844 Taiko;
#X text 1170 633 Flute;
#X text 1184 849 Flute;
#X msg 1183 718 -30;
#X msg 1190 935 30;
#X obj 791 676 inc_clarinet~;
#X obj 791 697 *~ 1;
#X obj 758 895 inc_clarinet~;
#X text 888 652 Clarinet;
#X text 854 855 Bass Clarinet;
#X obj 758 915 *~ 1;
#X obj 791 623 expr $i1-12 \; $i2;
#X obj 1081 622 expr $i1+12 \; $i2;
#X obj 759 1045 expr $i1-24 \; $i2;
#X obj 758 842 expr $i1-24 \; $i2;
#X text 600 656 Malletty;
#X obj 232 174 vsl 12 44 0 127 0 0 empty empty empty 0 -9 0 10 -191407
-4160 -1 0 1;
#X obj 317 11 ctlin 1;
#X obj 377 11 ctlin 2;
#X obj 437 11 ctlin 3;
#X obj 497 11 ctlin 4;
#X obj 520 32 ctlin 5;
#X obj 580 31 ctlin 6;
#X obj 640 31 ctlin 7;
#X obj 700 31 ctlin 8;
#X obj 394 174 vsl 12 44 0 127 0 0 empty empty empty 0 -9 0 10 -191407
-4160 -1 0 1;
#X obj 556 174 vsl 12 44 0 127 0 0 empty empty empty 0 -9 0 10 -191407
-4160 -1 0 1;
#X obj 718 174 vsl 12 44 0 127 0 0 empty empty empty 0 -9 0 10 -191407
-4160 -1 0 1;
#X obj 232 325 vsl 12 44 0 127 0 0 empty empty empty 0 -9 0 10 -191407
-4160 -1 0 1;
#X obj 394 325 vsl 12 44 0 127 0 0 empty empty empty 0 -9 0 10 -191407
-4160 -1 0 1;
#X obj 556 325 vsl 12 44 0 127 0 0 empty empty empty 0 -9 0 10 -191407
-4160 -1 0 1;
#X obj 718 325 vsl 12 44 0 127 0 0 empty empty empty 0 -9 0 10 -191407
-4160 -1 0 1;
#X obj 251 607 notein;
#X obj 251 628 pack f f;
#X obj 464 697 bp~ 350 20;
#X obj 464 718 *~ 8;
#X obj 464 624 expr $i1-12 \; $i2;
#X obj 464 656 pack f f;
#X obj 91 862 inc_fmsynth~ 0.5 0.25 3 15 50 0.8 300 15 50 0.25 300
;
#X obj 91 883 bp~ 350 20;
#X obj 91 842 pack f f;
#X obj 91 790 r \$0_inst5;
#X obj 91 810 expr $i1-24 \; $i2;
#X obj 91 904 *~ 8;
#X obj 825 100 *~ 0.25;
#X obj 825 121 *~;
#X obj 882 100 r~ vol9;
#X obj 1163 89 r~ vol10;
#X obj 1129 118 *~;
#X obj 1219 117 *~;
#X obj 462 126 hsl 128 15 0 127 0 0 empty empty BeepVolume -2 -8 0
10 -191407 -4160 -1 0 1;
#X obj 622 126 hsl 128 15 0 127 0 0 empty empty MasterVolume -2 -8
0 10 -191407 -4160 -1 0 1;
#X obj 650 61 ctlin 9;
#X obj 710 61 ctlin 10;
#X obj 44 24 ctlin 41;
#X obj 112 26 ctlin 48;
#X obj 44 45 sel 0;
#N canvas 318 256 628 374 supertoggle 0;
#X obj 124 96 inlet;
#X obj 100 100 tgl 10 0 \$0_t \$0_o empty 17 7 0 10 -262144 -262144
-262144 0 1;
#X msg 173 203 color 0 0 0;
#X msg 59 203 color 18 18 18;
#X obj 124 117 t b b;
#X obj 195 57 bng 15 250 50 0 empty empty empty 17 7 0 10 -262144 -1
-1;
#X obj 167 157 del 50;
#X connect 0 0 4 0;
#X connect 2 0 1 0;
#X connect 3 0 1 0;
#X connect 4 0 6 0;
#X connect 4 1 3 0;
#X connect 5 0 4 0;
#X connect 6 0 2 0;
#X coords 0 -1 1 1 10 10 2 100 100;
#X restore 445 129 pd supertoggle;
#X obj 422 58 r globaltick;
#X obj 112 47 sel 0;
#X connect 4 0 56 0;
#X connect 5 0 6 0;
#X connect 5 1 7 0;
#X connect 8 0 9 0;
#X connect 9 0 5 1;
#X connect 10 0 11 0;
#X connect 10 1 12 0;
#X connect 13 0 14 0;
#X connect 14 0 10 1;
#X connect 15 0 16 0;
#X connect 15 1 17 0;
#X connect 18 0 28 0;
#X connect 19 0 20 0;
#X connect 19 1 21 0;
#X connect 22 0 27 0;
#X connect 23 0 24 0;
#X connect 23 1 25 0;
#X connect 26 0 156 0;
#X connect 27 0 19 1;
#X connect 28 0 15 1;
#X connect 29 0 158 0;
#X connect 30 0 151 0;
#X connect 31 0 32 0;
#X connect 31 1 33 0;
#X connect 34 0 35 0;
#X connect 35 0 31 1;
#X connect 36 0 37 0;
#X connect 36 1 38 0;
#X connect 39 0 49 0;
#X connect 40 0 41 0;
#X connect 40 1 42 0;
#X connect 43 0 48 0;
#X connect 44 0 45 0;
#X connect 44 1 46 0;
#X connect 47 0 50 0;
#X connect 48 0 40 1;
#X connect 49 0 36 1;
#X connect 50 0 44 1;
#X connect 51 0 60 0;
#X connect 52 0 121 0;
#X connect 53 0 115 0;
#X connect 54 0 51 0;
#X connect 54 1 51 1;
#X connect 55 0 4 0;
#X connect 56 0 197 0;
#X connect 57 0 59 0;
#X connect 58 0 187 0;
#X connect 59 0 134 0;
#X connect 60 0 40 0;
#X connect 61 0 62 0;
#X connect 61 1 63 0;
#X connect 64 0 86 0;
#X connect 65 0 66 0;
#X connect 65 1 67 0;
#X connect 68 0 157 0;
#X connect 69 0 70 0;
#X connect 69 1 71 0;
#X connect 72 0 84 0;
#X connect 73 0 74 0;
#X connect 73 1 75 0;
#X connect 76 0 85 0;
#X connect 77 0 81 0;
#X connect 78 0 122 0;
#X connect 79 0 160 0;
#X connect 80 0 83 0;
#X connect 81 0 69 0;
#X connect 83 0 89 0;
#X connect 84 0 69 1;
#X connect 85 0 73 1;
#X connect 86 0 61 1;
#X connect 87 0 80 0;
#X connect 87 1 80 1;
#X connect 88 0 3 0;
#X connect 88 0 119 0;
#X connect 89 0 149 0;
#X connect 91 0 201 0;
#X connect 92 0 202 0;
#X connect 104 0 57 0;
#X connect 105 0 189 0;
#X connect 106 0 164 0;
#X connect 107 0 165 0;
#X connect 108 0 152 0;
#X connect 109 0 167 0;
#X connect 110 0 87 0;
#X connect 111 0 54 0;
#X connect 112 0 116 0;
#X connect 113 0 166 0;
#X connect 114 0 117 0;
#X connect 115 0 145 0;
#X connect 116 0 52 0;
#X connect 116 1 52 1;
#X connect 117 0 78 0;
#X connect 117 1 78 1;
#X connect 118 0 142 0;
#X connect 120 0 94 0;
#X connect 120 0 93 0;
#X connect 120 1 95 0;
#X connect 120 1 93 1;
#X connect 121 0 44 0;
#X connect 122 0 73 0;
#X connect 123 0 4 0;
#X connect 124 1 125 0;
#X connect 126 0 96 0;
#X connect 127 0 97 0;
#X connect 128 0 98 0;
#X connect 129 0 99 0;
#X connect 130 0 100 0;
#X connect 131 0 101 0;
#X connect 132 0 102 0;
#X connect 133 0 103 0;
#X connect 134 0 10 0;
#X connect 136 0 134 1;
#X connect 137 0 15 0;
#X connect 138 0 137 1;
#X connect 139 0 19 0;
#X connect 140 0 139 1;
#X connect 141 0 142 1;
#X connect 142 0 23 0;
#X connect 143 0 31 0;
#X connect 144 0 143 1;
#X connect 145 0 36 0;
#X connect 146 0 145 1;
#X connect 147 0 61 0;
#X connect 148 0 147 1;
#X connect 149 0 65 0;
#X connect 150 0 149 1;
#X connect 151 0 118 0;
#X connect 152 0 53 0;
#X connect 152 1 53 1;
#X connect 156 0 23 1;
#X connect 157 0 65 1;
#X connect 158 0 159 0;
#X connect 159 0 139 0;
#X connect 160 0 163 0;
#X connect 163 0 147 0;
#X connect 164 0 29 0;
#X connect 164 1 29 1;
#X connect 165 0 30 0;
#X connect 165 1 30 1;
#X connect 166 0 77 0;
#X connect 166 1 77 1;
#X connect 167 0 79 0;
#X connect 167 1 79 1;
#X connect 170 0 169 0;
#X connect 171 0 178 0;
#X connect 172 0 179 0;
#X connect 173 0 180 0;
#X connect 174 0 181 0;
#X connect 175 0 182 0;
#X connect 176 0 183 0;
#X connect 177 0 184 0;
#X connect 185 0 186 0;
#X connect 185 1 186 1;
#X connect 186 0 58 0;
#X connect 187 0 188 0;
#X connect 188 0 137 0;
#X connect 189 0 190 0;
#X connect 189 1 190 1;
#X connect 190 0 58 0;
#X connect 191 0 192 0;
#X connect 192 0 196 0;
#X connect 193 0 191 0;
#X connect 194 0 195 0;
#X connect 195 0 193 0;
#X connect 195 1 193 1;
#X connect 196 0 143 0;
#X connect 197 0 198 0;
#X connect 198 0 5 0;
#X connect 199 0 198 1;
#X connect 200 0 202 1;
#X connect 200 0 201 1;
#X connect 201 0 120 0;
#X connect 202 0 120 1;
#X connect 205 0 203 0;
#X connect 206 0 204 0;
#X connect 207 0 209 0;
#X connect 208 0 212 0;
#X connect 209 1 2 0;
#X connect 211 0 210 0;
#X connect 212 1 3 0;
#X coords 0 -1 1 1 662 362 1 100 100;
