#N canvas -8 -8 1366 725 10;
#X obj 815 39 cnv 15 300 150 empty empty Metro_C's 20 12 0 14 -233017
-66577 0;
#X obj 101 101 cnv 15 660 360 empty empty empty 20 12 0 14 -233017
-66577 0;
#X obj 113 124 bng 30 250 50 0 start null empty 17 7 0 10 -204786 -1
-1;
#X obj 149 124 bng 30 250 50 0 reset empty empty 17 7 0 10 -261234
-1 -1;
#X obj 825 60 incMetrobeep;
#X obj 825 140 pan~ 0;
#X obj 825 161 throw~ \$0_left;
#X obj 915 161 throw~ \$0_right;
#X obj 858 98 loadbang;
#X msg 858 119 0;
#X obj 133 739 pan~ 0;
#X obj 133 760 throw~ \$0_left;
#X obj 223 760 throw~ \$0_right;
#X obj 196 697 loadbang;
#X msg 196 718 -15;
#X obj 463 739 pan~ 0;
#X obj 463 760 throw~ \$0_left;
#X obj 553 760 throw~ \$0_right;
#X obj 526 697 loadbang;
#X obj 790 738 pan~ 0;
#X obj 790 759 throw~ \$0_left;
#X obj 880 759 throw~ \$0_right;
#X obj 843 697 loadbang;
#X obj 1080 739 pan~ 0;
#X obj 1080 760 throw~ \$0_left;
#X obj 1170 760 throw~ \$0_right;
#X obj 1133 697 loadbang;
#X msg 843 718 -30;
#X msg 526 718 15;
#X msg 1133 718 30;
#X obj 791 655 pack f f;
#X obj 1081 654 pack f f;
#X obj 133 950 pan~ 0;
#X obj 133 971 throw~ \$0_left;
#X obj 223 971 throw~ \$0_right;
#X obj 166 908 loadbang;
#X msg 166 929 -15;
#X obj 413 950 pan~ 0;
#X obj 413 971 throw~ \$0_left;
#X obj 503 971 throw~ \$0_right;
#X obj 446 908 loadbang;
#X obj 132 1132 pan~ 0;
#X obj 132 1153 throw~ \$0_left;
#X obj 222 1153 throw~ \$0_right;
#X obj 225 1090 loadbang;
#X obj 415 1158 pan~ 0;
#X obj 415 1179 throw~ \$0_left;
#X obj 505 1179 throw~ \$0_right;
#X obj 448 1116 loadbang;
#X msg 225 1111 -30;
#X msg 446 929 15;
#X msg 448 1137 30;
#X obj 133 1075 pack f f;
#X obj 416 1073 pack f f;
#X obj 134 865 pack f f;
#X obj 414 867 pack f f;
#X obj 133 1043 expr $i1-36 \; $i2;
#X obj 820 21 tgl 15 0 empty empty empty 17 7 0 10 -262144 -1 -1 0
1;
#X obj 825 79 inc_fmsynth~ 2 0.2 1 1 50 0.2 30 1 50 0.25 10;
#X obj 134 676 inc_fmsynth~ 0.5 0.25 3 15 50 0.8 300 15 50 0.25 300
;
#X obj 464 676 inc_fmsynth~ 0.5 0.25 3 15 50 0.8 300 15 50 0.25 300
;
#X obj 134 697 lop~ 350;
#X obj 464 697 lop~ 350;
#X obj 134 887 inc_clarinet~;
#X obj 133 1096 inc_clarinet~;
#X obj 757 952 pan~ 0;
#X obj 757 973 throw~ \$0_left;
#X obj 847 973 throw~ \$0_right;
#X obj 801 915 loadbang;
#X obj 1084 953 pan~ 0;
#X obj 1084 974 throw~ \$0_left;
#X obj 1174 974 throw~ \$0_right;
#X obj 1130 914 loadbang;
#X obj 759 1123 pan~ 0;
#X obj 759 1144 throw~ \$0_left;
#X obj 849 1144 throw~ \$0_right;
#X obj 852 1081 loadbang;
#X obj 1085 1159 pan~ 0;
#X obj 1085 1180 throw~ \$0_left;
#X obj 1175 1180 throw~ \$0_right;
#X obj 1118 1117 loadbang;
#X obj 759 1077 pack f f;
#X obj 1086 1075 pack f f;
#X obj 758 874 pack f f;
#X obj 1085 873 pack f f;
#X obj 759 1045 expr $i1-36 \; $i2;
#X obj 759 1100 inc_clarinet~;
#X obj 777 1216 vsl 15 128 0 127 0 0 empty empty empty 0 -9 0 10 -262144
-1 -1 0 1;
#X obj 758 894 inc_fmsynth~ 50 0 0.25 30 30 1 200 100 100 0.25 200
;
#X obj 1085 893 inc_fmsynth~ 50 0 0.25 30 30 1 200 100 100 0.25 200
;
#X msg 852 1102 30;
#X msg 1118 1138 -30;
#X msg 801 935 -35;
#X msg 1130 935 35;
#X obj 758 842 expr $i1+12 \; $i2;
#X obj 1085 841 expr $i1+12 \; $i2;
#X obj 189 46 loadbang;
#X obj 758 915 *~ 0.5;
#X obj 1085 914 *~ 0.5;
#X obj 1121 39 cnv 15 200 130 empty empty Catch_to_DAC 20 12 0 14 -233017
-66577 0;
#X obj 1129 68 catch~ \$0_left;
#X obj 1219 68 catch~ \$0_right;
#X obj 1177 143 dac~;
#X obj 1129 143 outlet~;
#X obj 1207 143 outlet~;
#X obj 916 366 s \$0_inst1;
#X obj 986 366 s \$0_inst2;
#X obj 1059 366 s \$0_inst3;
#X obj 1132 366 s \$0_inst4;
#X obj 916 386 s \$0_inst5;
#X obj 986 386 s \$0_inst6;
#X obj 1059 386 s \$0_inst7;
#X obj 1132 386 s \$0_inst8;
#X obj 134 655 r \$0_inst1;
#X obj 464 655 r \$0_inst2;
#X obj 791 602 r \$0_inst3;
#X obj 1081 602 r \$0_inst4;
#X obj 134 812 r \$0_inst5;
#X obj 414 814 r \$0_inst6;
#X obj 758 821 r \$0_inst7;
#X obj 1085 821 r \$0_inst8;
#X obj 133 1022 r \$0_inst9;
#X obj 416 1020 r \$0_inst10;
#X obj 759 1024 r \$0_inst11;
#X obj 1086 1023 r \$0_inst12;
#X obj 414 887 inc_fmsynth~ 16 0 4.5 1 50 1 30 1 80 0.02 10;
#X obj 791 676 inc_fmsynth~ 16 0 4.5 1 50 1 30 1 80 0.02 10;
#X obj 1081 676 inc_fmsynth~ 16 0 4.5 1 50 1 30 1 80 0.02 10;
#X obj 791 623 expr $i1+0 \; $i2;
#X obj 1081 622 expr $i1+0 \; $i2;
#X obj 134 833 expr $i1-12 \; $i2;
#X obj 416 1041 expr $i1-24 \; $i2;
#X obj 1087 1043 expr $i1-24 \; $i2;
#X obj 791 697 *~ 0.4;
#X obj 1081 697 *~ 0.4;
#X obj 1130 93 *~ 0.15;
#X obj 1220 92 *~ 0.15;
#X msg 192 67 \; pd dsp 1;
#X obj 1160 117 rev3~ 100 65 3000 20;
#X obj 416 1095 inc_fmsynth~ 16 0 4.5 1 50 1 30 1 80 0.02 10;
#X obj 1086 1096 inc_fmsynth~ 16 0 4.5 1 50 1 30 1 80 0.02 10;
#X obj 414 835 expr $i1 \; $i2;
#X obj 749 25 r start;
#X obj 341 537 ctlin;
#X floatatom 349 569 5 0 0 0 - - -;
#X obj 113 161 incPatterns 37;
#X obj 275 161 incPatterns 38;
#X obj 437 161 incPatterns 39;
#X obj 599 161 incPatterns 40;
#X obj 113 322 incPatterns 33;
#X obj 275 322 incPatterns 34;
#X obj 437 322 incPatterns 35;
#X obj 599 322 incPatterns 36;
#X connect 4 0 58 0;
#X connect 5 0 6 0;
#X connect 5 1 7 0;
#X connect 8 0 9 0;
#X connect 9 0 5 1;
#X connect 10 0 11 0;
#X connect 10 1 12 0;
#X connect 13 0 14 0;
#X connect 14 0 10 1;
#X connect 15 0 16 0;
#X connect 15 1 17 0;
#X connect 18 0 28 0;
#X connect 19 0 20 0;
#X connect 19 1 21 0;
#X connect 22 0 27 0;
#X connect 23 0 24 0;
#X connect 23 1 25 0;
#X connect 26 0 29 0;
#X connect 27 0 19 1;
#X connect 28 0 15 1;
#X connect 29 0 23 1;
#X connect 30 0 126 0;
#X connect 31 0 127 0;
#X connect 32 0 33 0;
#X connect 32 1 34 0;
#X connect 35 0 36 0;
#X connect 36 0 32 1;
#X connect 37 0 38 0;
#X connect 37 1 39 0;
#X connect 40 0 50 0;
#X connect 41 0 42 0;
#X connect 41 1 43 0;
#X connect 44 0 49 0;
#X connect 45 0 46 0;
#X connect 45 1 47 0;
#X connect 48 0 51 0;
#X connect 49 0 41 1;
#X connect 50 0 37 1;
#X connect 51 0 45 1;
#X connect 52 0 64 0;
#X connect 53 0 139 0;
#X connect 54 0 63 0;
#X connect 55 0 125 0;
#X connect 56 0 52 0;
#X connect 56 1 52 1;
#X connect 57 0 4 0;
#X connect 58 0 5 0;
#X connect 59 0 61 0;
#X connect 60 0 62 0;
#X connect 61 0 10 0;
#X connect 62 0 15 0;
#X connect 63 0 32 0;
#X connect 64 0 41 0;
#X connect 65 0 66 0;
#X connect 65 1 67 0;
#X connect 68 0 92 0;
#X connect 69 0 70 0;
#X connect 69 1 71 0;
#X connect 72 0 93 0;
#X connect 73 0 74 0;
#X connect 73 1 75 0;
#X connect 76 0 90 0;
#X connect 77 0 78 0;
#X connect 77 1 79 0;
#X connect 80 0 91 0;
#X connect 81 0 86 0;
#X connect 82 0 140 0;
#X connect 83 0 88 0;
#X connect 84 0 89 0;
#X connect 85 0 81 0;
#X connect 85 1 81 1;
#X connect 86 0 73 0;
#X connect 88 0 97 0;
#X connect 89 0 98 0;
#X connect 90 0 73 1;
#X connect 91 0 77 1;
#X connect 92 0 65 1;
#X connect 93 0 69 1;
#X connect 94 0 83 0;
#X connect 94 1 83 1;
#X connect 95 0 84 0;
#X connect 95 1 84 1;
#X connect 96 0 3 0;
#X connect 96 0 137 0;
#X connect 97 0 65 0;
#X connect 98 0 69 0;
#X connect 100 0 135 0;
#X connect 101 0 136 0;
#X connect 113 0 59 0;
#X connect 114 0 60 0;
#X connect 115 0 128 0;
#X connect 116 0 129 0;
#X connect 117 0 130 0;
#X connect 118 0 141 0;
#X connect 119 0 94 0;
#X connect 120 0 95 0;
#X connect 121 0 56 0;
#X connect 122 0 131 0;
#X connect 123 0 85 0;
#X connect 124 0 132 0;
#X connect 125 0 37 0;
#X connect 126 0 133 0;
#X connect 127 0 134 0;
#X connect 128 0 30 0;
#X connect 128 1 30 1;
#X connect 129 0 31 0;
#X connect 129 1 31 1;
#X connect 130 0 54 0;
#X connect 130 1 54 1;
#X connect 131 0 53 0;
#X connect 131 1 53 1;
#X connect 132 0 82 0;
#X connect 132 1 82 1;
#X connect 133 0 19 0;
#X connect 134 0 23 0;
#X connect 135 0 138 0;
#X connect 136 0 138 1;
#X connect 138 0 103 0;
#X connect 138 0 102 0;
#X connect 138 1 104 0;
#X connect 138 1 102 1;
#X connect 139 0 45 0;
#X connect 140 0 77 0;
#X connect 141 0 55 0;
#X connect 141 1 55 1;
#X connect 142 0 4 0;
#X connect 143 1 144 0;
#X connect 145 0 105 0;
#X connect 146 0 106 0;
#X connect 147 0 107 0;
#X connect 148 0 108 0;
#X connect 149 0 109 0;
#X connect 150 0 110 0;
#X connect 151 0 111 0;
#X connect 152 0 112 0;
#X coords 0 -1 1 1 662 362 1 100 100;
