#N canvas -8 -8 1366 725 10;
#X obj 101 201 cnv 15 150 140 empty empty empty 20 12 0 14 -162280
-66577 0;
#X obj 37 367 bng 15 250 50 0 empty empty empty 17 7 0 10 -262144 -1
-1;
#X obj 37 386 s randbang;
#X obj 109 386 s resetcounters;
#X obj 109 367 bng 15 250 50 0 empty empty empty 17 7 0 10 -262144
-1 -1;
#X obj 37 345 r reset;
#X obj 343 218 bng 20 250 50 0 reset empty empty 35 15 0 10 -261234
-86277 -86277;
#X obj 253 136 r \$0_tomidi;
#X obj 113 211 inc_gridvis;
#X obj 110 282 notevis_poly;
#X obj 1305 902 vsl 15 500 0 127 0 0 empty empty empty 0 -9 0 10 -262144
-1 -1 0 1;
#N canvas -8 -8 1366 725 midihandler 0;
#X obj 37 37 inlet;
#X msg 37 58 \$1 100;
#X obj 37 332 outlet;
#X obj 111 74 unpack f f;
#X msg 132 211 \$1 0;
#X obj 132 191 pipe;
#X connect 0 0 1 0;
#X connect 0 0 3 0;
#X connect 1 0 2 0;
#X connect 3 0 5 0;
#X connect 3 1 5 1;
#X connect 4 0 2 0;
#X connect 5 0 4 0;
#X restore 253 157 pd midihandler;
#X obj 267 181 loadbang;
#X obj 262 213 outlet;
#X obj 99 117 bng 15 250 50 0 empty empty empty 17 7 0 10 -262144 -1
-1;
#X obj 99 176 counter 0 55;
#X obj 124 117 bng 15 250 50 0 empty empty empty 17 7 0 10 -262144
-1 -1;
#X obj 124 137 t b b;
#X obj 72 74 sel 0;
#X obj 99 95 t b;
#X obj 124 95 r reset;
#X obj 72 53 ctlin \$1;
#X obj 44 200 s \$0_pos;
#X obj 515 213 m0 \$0_pos \$0_tomidi;
#X obj 515 233 m1 \$0_pos \$0_tomidi;
#X obj 619 89 metro 200;
#X obj 619 110 s globaltick;
#X obj 568 39 loadbang;
#X msg 568 60 0;
#X msg 645 61 1;
#X obj 515 254 m2 \$0_pos \$0_tomidi;
#X obj 515 274 m3 \$0_pos \$0_tomidi;
#X obj 515 294 m4 \$0_pos \$0_tomidi;
#X obj 515 314 m5 \$0_pos \$0_tomidi;
#X obj 515 334 m6 \$0_pos \$0_tomidi;
#X obj 515 354 m7 \$0_pos \$0_tomidi;
#X obj 515 374 m8 \$0_pos \$0_tomidi;
#X obj 515 394 m9 \$0_pos \$0_tomidi;
#X obj 515 413 m10 \$0_pos \$0_tomidi;
#X obj 515 433 m11 \$0_pos \$0_tomidi;
#X obj 515 453 m12 \$0_pos \$0_tomidi;
#X obj 515 473 m13 \$0_pos \$0_tomidi;
#X obj 515 493 m14 \$0_pos \$0_tomidi;
#X obj 515 513 m15 \$0_pos \$0_tomidi;
#X obj 515 533 m16 \$0_pos \$0_tomidi;
#X obj 515 552 m17 \$0_pos \$0_tomidi;
#X obj 515 572 m18 \$0_pos \$0_tomidi;
#X obj 515 591 m19 \$0_pos \$0_tomidi;
#X obj 515 611 m20 \$0_pos \$0_tomidi;
#X obj 515 631 m21 \$0_pos \$0_tomidi;
#X obj 515 651 m22 \$0_pos \$0_tomidi;
#X obj 515 671 m23 \$0_pos \$0_tomidi;
#X obj 515 690 m24 \$0_pos \$0_tomidi;
#X obj 515 710 m25 \$0_pos \$0_tomidi;
#X obj 515 730 m26 \$0_pos \$0_tomidi;
#X obj 515 750 m27 \$0_pos \$0_tomidi;
#X obj 515 770 m28 \$0_pos \$0_tomidi;
#X obj 515 790 m29 \$0_pos \$0_tomidi;
#X obj 515 810 m30 \$0_pos \$0_tomidi;
#X obj 515 830 m31 \$0_pos \$0_tomidi;
#X obj 515 850 m32 \$0_pos \$0_tomidi;
#X obj 515 871 m33 \$0_pos \$0_tomidi;
#X obj 515 892 m34 \$0_pos \$0_tomidi;
#X obj 515 912 m35 \$0_pos \$0_tomidi;
#X obj 515 932 m36 \$0_pos \$0_tomidi;
#X obj 515 952 m37 \$0_pos \$0_tomidi;
#X obj 515 972 m38 \$0_pos \$0_tomidi;
#X obj 515 992 m39 \$0_pos \$0_tomidi;
#X obj 515 1012 m40 \$0_pos \$0_tomidi;
#X obj 515 1032 m41 \$0_pos \$0_tomidi;
#X obj 515 1052 m42 \$0_pos \$0_tomidi;
#X obj 515 1072 m43 \$0_pos \$0_tomidi;
#X obj 515 1092 m44 \$0_pos \$0_tomidi;
#X obj 515 1112 m45 \$0_pos \$0_tomidi;
#X obj 515 1132 m46 \$0_pos \$0_tomidi;
#X obj 515 1152 m47 \$0_pos \$0_tomidi;
#X obj 515 1172 m48 \$0_pos \$0_tomidi;
#X obj 515 1192 m49 \$0_pos \$0_tomidi;
#X obj 515 1212 m50 \$0_pos \$0_tomidi;
#X obj 515 1232 m51 \$0_pos \$0_tomidi;
#X obj 515 1252 m52 \$0_pos \$0_tomidi;
#X obj 515 1272 m53 \$0_pos \$0_tomidi;
#X floatatom 219 263 3 0 0 0 - - -;
#X obj 237 212 bng 12 250 50 0 empty empty empty 17 7 0 10 -204800
-13330 -1;
#X connect 1 0 2 0;
#X connect 4 0 3 0;
#X connect 5 0 1 0;
#X connect 5 0 4 0;
#X connect 7 0 11 0;
#X connect 11 0 9 0;
#X connect 11 0 13 0;
#X connect 12 0 6 0;
#X connect 14 0 15 0;
#X connect 15 0 8 0;
#X connect 15 0 22 0;
#X connect 15 0 82 0;
#X connect 16 0 17 0;
#X connect 17 0 15 0;
#X connect 17 1 15 2;
#X connect 18 1 19 0;
#X connect 19 0 14 0;
#X connect 20 0 16 0;
#X connect 21 0 18 0;
#X connect 25 0 26 0;
#X connect 27 0 28 0;
#X connect 28 0 25 0;
#X connect 29 0 25 0;
#X connect 83 0 14 0;
#X coords 0 -1 1 1 152 142 1 100 200;
