#N canvas 0 50 406 420 10;
#X msg 113 243 72 100;
#X msg 55 243 76 200;
#X obj 55 275 s \$2;
#X obj 55 55 r globaltick;
#X msg 55 76 1;
#X obj 55 97 spigot;
#X obj 138 55 r \$1;
#X obj 138 76 == 1;
#X msg 55 160 0;
#X obj 55 138 t b b;
#X obj 128 140 del 400;
#X msg 128 161 1;
#X obj 55 195 t b;
#X text 82 197 every 400 ms while r \$1 is true;
#X text 27 39 every 200 ms;
#X obj 55 118 spigot;
#X obj 181 55 loadbang;
#X msg 181 76 1;
#X obj 236 55 r reset;
#X obj 113 220 del 300;
#X connect 0 0 2 0;
#X connect 1 0 2 0;
#X connect 3 0 4 0;
#X connect 4 0 5 0;
#X connect 5 0 15 0;
#X connect 6 0 7 0;
#X connect 7 0 5 1;
#X connect 8 0 12 0;
#X connect 8 0 15 1;
#X connect 9 0 8 0;
#X connect 9 1 10 0;
#X connect 10 0 11 0;
#X connect 11 0 15 1;
#X connect 12 0 1 0;
#X connect 12 0 19 0;
#X connect 15 0 9 0;
#X connect 16 0 17 0;
#X connect 17 0 15 1;
#X connect 18 0 17 0;
#X connect 19 0 0 0;
