#N canvas 369 111 450 300 10;
#X obj 53 159 t b;
#X obj 75 25 r globaltick;
#X msg 75 46 1;
#X obj 75 67 spigot;
#X obj 158 25 r \$1;
#X msg 90 134 0;
#X obj 75 108 t b b;
#X msg 148 131 1;
#X obj 75 88 spigot;
#X obj 201 25 loadbang;
#X msg 201 46 1;
#X obj 256 25 r reset;
#X obj 53 257 spigot;
#X obj 53 278 s \$2;
#X text 72 4 #12 Motif;
#X obj 158 46 == 12;
#X obj 107 191 del 200;
#X obj 163 191 del 400;
#X obj 218 191 del 2000;
#X msg 53 214 77 200;
#X msg 107 214 79 200;
#X msg 163 214 83 1600;
#X msg 218 214 84 400;
#X obj 148 110 del 2400;
#X connect 0 0 19 0;
#X connect 0 0 18 0;
#X connect 0 0 17 0;
#X connect 0 0 16 0;
#X connect 1 0 2 0;
#X connect 2 0 3 0;
#X connect 3 0 8 0;
#X connect 4 0 15 0;
#X connect 5 0 8 1;
#X connect 6 0 5 0;
#X connect 6 0 0 0;
#X connect 6 1 23 0;
#X connect 7 0 8 1;
#X connect 8 0 6 0;
#X connect 9 0 10 0;
#X connect 10 0 8 1;
#X connect 11 0 10 0;
#X connect 12 0 13 0;
#X connect 15 0 3 1;
#X connect 15 0 12 1;
#X connect 16 0 20 0;
#X connect 17 0 21 0;
#X connect 18 0 22 0;
#X connect 19 0 12 0;
#X connect 20 0 12 0;
#X connect 21 0 12 0;
#X connect 22 0 12 0;
#X connect 23 0 7 0;
