#N canvas 559 127 450 309 10;
#X obj 53 159 t b;
#X obj 75 25 r globaltick;
#X msg 75 46 1;
#X obj 75 67 spigot;
#X obj 158 25 r \$1;
#X msg 90 134 0;
#X obj 75 108 t b b;
#X msg 148 131 1;
#X obj 75 88 spigot;
#X obj 201 25 loadbang;
#X msg 201 46 1;
#X obj 256 25 r reset;
#X obj 53 257 spigot;
#X obj 53 278 s \$2;
#X obj 148 110 del 2400;
#X obj 165 192 del 400;
#X obj 109 192 del 100;
#X obj 220 192 del 500;
#X obj 275 192 del 600;
#X obj 330 192 del 1100;
#X msg 53 215 83 100;
#X msg 165 215 79 100;
#X msg 220 215 77 100;
#X msg 330 215 79 1500;
#X msg 109 215 79 199;
#X msg 275 215 79 199;
#X text 72 4 #13 Motif 2;
#X obj 158 46 == 13;
#X connect 0 0 20 0;
#X connect 0 0 19 0;
#X connect 0 0 18 0;
#X connect 0 0 17 0;
#X connect 0 0 16 0;
#X connect 0 0 15 0;
#X connect 1 0 2 0;
#X connect 2 0 3 0;
#X connect 3 0 8 0;
#X connect 4 0 27 0;
#X connect 5 0 8 1;
#X connect 6 0 5 0;
#X connect 6 0 0 0;
#X connect 6 1 14 0;
#X connect 7 0 8 1;
#X connect 8 0 6 0;
#X connect 9 0 10 0;
#X connect 10 0 8 1;
#X connect 11 0 10 0;
#X connect 12 0 13 0;
#X connect 14 0 7 0;
#X connect 15 0 21 0;
#X connect 16 0 24 0;
#X connect 17 0 22 0;
#X connect 18 0 25 0;
#X connect 19 0 23 0;
#X connect 20 0 12 0;
#X connect 21 0 12 0;
#X connect 22 0 12 0;
#X connect 23 0 12 0;
#X connect 24 0 12 0;
#X connect 25 0 12 0;
#X connect 27 0 3 1;
#X connect 27 0 12 1;
