#N canvas 483 100 670 525 10;
#X obj 90 221 del 200;
#X obj 146 222 del 400;
#X msg 202 245 72 100;
#X text 39 11 # 2 (pickup at end);
#X msg 33 245 76 200;
#X msg 90 244 77 200;
#X msg 146 245 76 200;
#X obj 33 189 t b;
#X obj 55 55 r globaltick;
#X msg 55 76 1;
#X obj 55 97 spigot;
#X obj 138 55 r \$1;
#X msg 70 164 0;
#X obj 55 138 t b b;
#X msg 128 161 1;
#X obj 55 118 spigot;
#X obj 181 55 loadbang;
#X msg 181 76 1;
#X obj 236 55 r reset;
#X obj 138 76 == 2;
#X obj 128 140 del 800;
#X obj 33 287 spigot;
#X obj 33 308 s \$2;
#X obj 202 222 del 700;
#X connect 0 0 5 0;
#X connect 1 0 6 0;
#X connect 2 0 21 0;
#X connect 4 0 21 0;
#X connect 5 0 21 0;
#X connect 6 0 21 0;
#X connect 7 0 4 0;
#X connect 7 0 0 0;
#X connect 7 0 1 0;
#X connect 7 0 23 0;
#X connect 8 0 9 0;
#X connect 9 0 10 0;
#X connect 10 0 15 0;
#X connect 11 0 19 0;
#X connect 12 0 15 1;
#X connect 13 0 12 0;
#X connect 13 0 7 0;
#X connect 13 1 20 0;
#X connect 14 0 15 1;
#X connect 15 0 13 0;
#X connect 16 0 17 0;
#X connect 17 0 15 1;
#X connect 18 0 17 0;
#X connect 19 0 10 1;
#X connect 19 0 21 1;
#X connect 20 0 14 0;
#X connect 21 0 22 0;
#X connect 23 0 2 0;
