#N canvas -8 -8 1366 725 10;
#X obj 53 159 t b;
#X obj 75 25 r globaltick;
#X msg 75 46 1;
#X obj 75 67 spigot;
#X obj 158 25 r \$1;
#X msg 90 134 0;
#X obj 75 108 t b b;
#X msg 148 131 1;
#X obj 75 88 spigot;
#X obj 201 25 loadbang;
#X msg 201 46 1;
#X obj 256 25 r reset;
#X obj 53 257 spigot;
#X obj 53 278 s \$2;
#X obj 148 110 del 4200;
#X obj 165 189 del 400;
#X obj 109 189 del 200;
#X obj 220 189 del 600;
#X obj 275 189 del 1200;
#X obj 330 189 del 1800;
#X obj 387 189 del 2400;
#X obj 442 189 del 3000;
#X obj 497 189 del 3600;
#X msg 53 212 76 199;
#X msg 109 212 78 199;
#X msg 165 212 79 199;
#X msg 220 212 81 599;
#X msg 275 212 81 599;
#X msg 330 212 81 599;
#X msg 387 212 81 599;
#X msg 442 212 81 599;
#X msg 497 212 83 599;
#X text 70 5 #25 6/8 Transition pt 4;
#X obj 158 46 == 25;
#X connect 0 0 16 0;
#X connect 0 0 23 0;
#X connect 0 0 22 0;
#X connect 0 0 21 0;
#X connect 0 0 20 0;
#X connect 0 0 19 0;
#X connect 0 0 18 0;
#X connect 0 0 17 0;
#X connect 0 0 15 0;
#X connect 1 0 2 0;
#X connect 2 0 3 0;
#X connect 3 0 8 0;
#X connect 4 0 33 0;
#X connect 5 0 8 1;
#X connect 6 0 5 0;
#X connect 6 0 0 0;
#X connect 6 1 14 0;
#X connect 7 0 8 1;
#X connect 8 0 6 0;
#X connect 9 0 10 0;
#X connect 10 0 8 1;
#X connect 11 0 10 0;
#X connect 12 0 13 0;
#X connect 14 0 7 0;
#X connect 15 0 25 0;
#X connect 16 0 24 0;
#X connect 17 0 26 0;
#X connect 18 0 27 0;
#X connect 19 0 28 0;
#X connect 20 0 29 0;
#X connect 21 0 30 0;
#X connect 22 0 31 0;
#X connect 23 0 12 0;
#X connect 24 0 12 0;
#X connect 25 0 12 0;
#X connect 26 0 12 0;
#X connect 27 0 12 0;
#X connect 28 0 12 0;
#X connect 29 0 12 0;
#X connect 30 0 12 0;
#X connect 31 0 12 0;
#X connect 33 0 3 1;
#X connect 33 0 12 1;
