#N canvas 626 141 703 444 10;
#X obj 50 162 t b;
#X obj 72 28 r globaltick;
#X msg 72 49 1;
#X obj 72 70 spigot;
#X obj 155 28 r \$1;
#X msg 87 137 0;
#X obj 72 111 t b b;
#X msg 145 134 1;
#X obj 72 91 spigot;
#X obj 198 28 loadbang;
#X msg 198 49 1;
#X obj 253 28 r reset;
#X obj 50 260 spigot;
#X obj 50 281 s \$2;
#X text 67 8 #28 reprise shorter;
#X obj 145 113 del 800;
#X obj 155 49 == 28;
#X obj 106 198 del 100;
#X obj 162 198 del 200;
#X obj 217 198 del 300;
#X obj 272 198 del 400;
#X obj 327 198 del 700;
#X msg 50 221 76 100;
#X msg 106 221 78 100;
#X msg 162 221 76 100;
#X msg 217 221 78 100;
#X msg 272 221 76 300;
#X msg 327 221 76 99;
#X connect 0 0 22 0;
#X connect 0 0 21 0;
#X connect 0 0 20 0;
#X connect 0 0 19 0;
#X connect 0 0 18 0;
#X connect 0 0 17 0;
#X connect 1 0 2 0;
#X connect 2 0 3 0;
#X connect 3 0 8 0;
#X connect 4 0 16 0;
#X connect 5 0 8 1;
#X connect 6 0 5 0;
#X connect 6 0 0 0;
#X connect 6 1 15 0;
#X connect 7 0 8 1;
#X connect 8 0 6 0;
#X connect 9 0 10 0;
#X connect 10 0 8 1;
#X connect 11 0 10 0;
#X connect 12 0 13 0;
#X connect 15 0 7 0;
#X connect 16 0 3 1;
#X connect 16 0 12 1;
#X connect 17 0 23 0;
#X connect 18 0 24 0;
#X connect 19 0 25 0;
#X connect 20 0 26 0;
#X connect 21 0 27 0;
#X connect 22 0 12 0;
#X connect 23 0 12 0;
#X connect 24 0 12 0;
#X connect 25 0 12 0;
#X connect 26 0 12 0;
#X connect 27 0 12 0;
