#N canvas 18 95 1024 572 10;
#X obj 33 189 t b;
#X obj 55 55 r globaltick;
#X msg 55 76 1;
#X obj 55 97 spigot;
#X obj 138 55 r \$1;
#X msg 70 164 0;
#X obj 55 138 t b b;
#X msg 128 161 1;
#X obj 55 118 spigot;
#X obj 181 55 loadbang;
#X msg 181 76 1;
#X obj 236 55 r reset;
#X obj 128 140 del 800;
#X obj 33 287 spigot;
#X obj 33 308 s \$2;
#X obj 33 217 del 200;
#X obj 89 217 del 400;
#X obj 145 217 del 600;
#X text 36 26 # 3 (del 200 eighth at front);
#X msg 33 240 76 200;
#X msg 89 240 77 200;
#X msg 145 240 76 200;
#X obj 138 76 == 3;
#X connect 0 0 15 0;
#X connect 0 0 17 0;
#X connect 0 0 16 0;
#X connect 1 0 2 0;
#X connect 2 0 3 0;
#X connect 3 0 8 0;
#X connect 4 0 22 0;
#X connect 5 0 8 1;
#X connect 6 0 5 0;
#X connect 6 0 0 0;
#X connect 6 1 12 0;
#X connect 7 0 8 1;
#X connect 8 0 6 0;
#X connect 9 0 10 0;
#X connect 10 0 8 1;
#X connect 11 0 10 0;
#X connect 12 0 7 0;
#X connect 13 0 14 0;
#X connect 15 0 19 0;
#X connect 16 0 20 0;
#X connect 17 0 21 0;
#X connect 19 0 13 0;
#X connect 20 0 13 0;
#X connect 21 0 13 0;
#X connect 22 0 3 1;
#X connect 22 0 13 1;
