#N canvas 619 188 450 300 10;
#X obj 50 162 t b;
#X obj 72 28 r globaltick;
#X msg 72 49 1;
#X obj 72 70 spigot;
#X obj 155 28 r \$1;
#X msg 87 137 0;
#X obj 72 111 t b b;
#X msg 145 134 1;
#X obj 72 91 spigot;
#X obj 198 28 loadbang;
#X msg 198 49 1;
#X obj 253 28 r reset;
#X obj 50 230 spigot;
#X obj 50 251 s \$2;
#X text 65 7 #30 C dotted-whole;
#X obj 155 49 == 30;
#X obj 145 113 del 2400;
#X msg 50 197 84 2399;
#X connect 0 0 17 0;
#X connect 1 0 2 0;
#X connect 2 0 3 0;
#X connect 3 0 8 0;
#X connect 4 0 15 0;
#X connect 5 0 8 1;
#X connect 6 0 5 0;
#X connect 6 0 0 0;
#X connect 6 1 16 0;
#X connect 7 0 8 1;
#X connect 8 0 6 0;
#X connect 9 0 10 0;
#X connect 10 0 8 1;
#X connect 11 0 10 0;
#X connect 12 0 13 0;
#X connect 15 0 3 1;
#X connect 15 0 12 1;
#X connect 16 0 7 0;
#X connect 17 0 12 0;
