#N canvas -8 -8 1366 725 10;
#X obj 53 159 t b;
#X obj 75 25 r globaltick;
#X msg 75 46 1;
#X obj 75 67 spigot;
#X obj 158 25 r \$1;
#X msg 90 134 0;
#X obj 75 108 t b b;
#X msg 148 131 1;
#X obj 75 88 spigot;
#X obj 201 25 loadbang;
#X msg 201 46 1;
#X obj 256 25 r reset;
#X obj 53 257 spigot;
#X obj 53 278 s \$2;
#X text 70 5 #35 GIANT MELODYYYYYYYYYY;
#X obj 148 110 del 13200;
#X obj 100 184 del 100;
#X obj 149 185 del 200;
#X obj 198 185 del 300;
#X obj 247 185 del 400;
#X obj 297 185 del 500;
#X obj 346 185 del 600;
#X obj 396 185 del 700;
#X obj 445 185 del 800;
#X obj 496 185 del 900;
#X obj 547 185 del 2400;
#X obj 602 185 del 2800;
#X obj 657 185 del 4000;
#X obj 712 185 del 4200;
#X obj 767 185 del 4600;
#X obj 822 185 del 4800;
#X obj 877 185 del 5400;
#X obj 988 185 del 7200;
#X obj 1043 185 del 7400;
#X obj 1098 185 del 9800;
#X obj 1153 185 del 10800;
#X obj 932 185 del 5600;
#X msg 53 207 77 100;
#X msg 100 207 79 100;
#X msg 149 208 83 100;
#X msg 198 208 79 100;
#X msg 247 208 83 100;
#X msg 297 208 79 100;
#X msg 346 208 83 100;
#X msg 396 208 79 100;
#X msg 445 208 83 100;
#X msg 496 208 79 100;
#X msg 547 208 82 200;
#X msg 602 208 91 1200;
#X msg 657 208 93 200;
#X msg 712 208 91 400;
#X msg 767 208 95 200;
#X msg 822 208 93 300;
#X msg 877 208 91 200;
#X msg 932 208 88 1200;
#X msg 988 208 91 200;
#X msg 1043 208 90 1400;
#X msg 1098 208 88 1000;
#X msg 1153 208 89 1200;
#X obj 158 46 == 35;
#X connect 0 0 37 0;
#X connect 0 0 36 0;
#X connect 0 0 35 0;
#X connect 0 0 34 0;
#X connect 0 0 33 0;
#X connect 0 0 32 0;
#X connect 0 0 31 0;
#X connect 0 0 30 0;
#X connect 0 0 29 0;
#X connect 0 0 28 0;
#X connect 0 0 27 0;
#X connect 0 0 26 0;
#X connect 0 0 25 0;
#X connect 0 0 24 0;
#X connect 0 0 23 0;
#X connect 0 0 22 0;
#X connect 0 0 21 0;
#X connect 0 0 20 0;
#X connect 0 0 19 0;
#X connect 0 0 18 0;
#X connect 0 0 17 0;
#X connect 0 0 16 0;
#X connect 1 0 2 0;
#X connect 2 0 3 0;
#X connect 3 0 8 0;
#X connect 4 0 59 0;
#X connect 5 0 8 1;
#X connect 6 0 5 0;
#X connect 6 0 0 0;
#X connect 6 1 15 0;
#X connect 7 0 8 1;
#X connect 8 0 6 0;
#X connect 9 0 10 0;
#X connect 10 0 8 1;
#X connect 11 0 10 0;
#X connect 12 0 13 0;
#X connect 15 0 7 0;
#X connect 16 0 38 0;
#X connect 17 0 39 0;
#X connect 18 0 40 0;
#X connect 19 0 41 0;
#X connect 20 0 42 0;
#X connect 21 0 43 0;
#X connect 22 0 44 0;
#X connect 23 0 45 0;
#X connect 24 0 46 0;
#X connect 25 0 47 0;
#X connect 26 0 48 0;
#X connect 27 0 49 0;
#X connect 28 0 50 0;
#X connect 29 0 51 0;
#X connect 30 0 52 0;
#X connect 31 0 53 0;
#X connect 32 0 55 0;
#X connect 33 0 56 0;
#X connect 34 0 57 0;
#X connect 35 0 58 0;
#X connect 36 0 54 0;
#X connect 37 0 12 0;
#X connect 38 0 12 0;
#X connect 39 0 12 0;
#X connect 40 0 12 0;
#X connect 41 0 12 0;
#X connect 42 0 12 0;
#X connect 43 0 12 0;
#X connect 44 0 12 0;
#X connect 45 0 12 0;
#X connect 46 0 12 0;
#X connect 47 0 12 0;
#X connect 48 0 12 0;
#X connect 49 0 12 0;
#X connect 50 0 12 0;
#X connect 51 0 12 0;
#X connect 52 0 12 0;
#X connect 53 0 12 0;
#X connect 54 0 12 0;
#X connect 55 0 12 0;
#X connect 56 0 12 0;
#X connect 57 0 12 0;
#X connect 58 0 12 0;
#X connect 59 0 3 1;
#X connect 59 0 12 1;
