#N canvas 280 34 677 528 10;
#X text 68 28 # 4 (eighth rest at front);
#X obj 53 189 t b;
#X obj 75 55 r globaltick;
#X msg 75 76 1;
#X obj 75 97 spigot;
#X obj 158 55 r \$1;
#X msg 90 164 0;
#X obj 75 138 t b b;
#X msg 148 161 1;
#X obj 75 118 spigot;
#X obj 201 55 loadbang;
#X msg 201 76 1;
#X obj 256 55 r reset;
#X obj 148 140 del 800;
#X obj 53 287 spigot;
#X obj 53 308 s \$2;
#X obj 53 217 del 200;
#X obj 109 217 del 400;
#X obj 165 217 del 600;
#X msg 53 240 76 200;
#X msg 109 240 77 200;
#X msg 165 240 79 200;
#X obj 158 76 == 4;
#X connect 1 0 16 0;
#X connect 1 0 18 0;
#X connect 1 0 17 0;
#X connect 2 0 3 0;
#X connect 3 0 4 0;
#X connect 4 0 9 0;
#X connect 5 0 22 0;
#X connect 6 0 9 1;
#X connect 7 0 6 0;
#X connect 7 0 1 0;
#X connect 7 1 13 0;
#X connect 8 0 9 1;
#X connect 9 0 7 0;
#X connect 10 0 11 0;
#X connect 11 0 9 1;
#X connect 12 0 11 0;
#X connect 13 0 8 0;
#X connect 14 0 15 0;
#X connect 16 0 19 0;
#X connect 17 0 20 0;
#X connect 18 0 21 0;
#X connect 19 0 14 0;
#X connect 20 0 14 0;
#X connect 21 0 14 0;
#X connect 22 0 4 1;
#X connect 22 0 14 1;
