#N canvas 163 89 802 410 10;
#X obj 53 189 t b;
#X obj 75 55 r globaltick;
#X msg 75 76 1;
#X obj 75 97 spigot;
#X obj 158 55 r \$1;
#X msg 90 164 0;
#X obj 75 138 t b b;
#X msg 148 161 1;
#X obj 75 118 spigot;
#X obj 201 55 loadbang;
#X msg 201 76 1;
#X obj 256 55 r reset;
#X obj 53 287 spigot;
#X obj 53 308 s \$2;
#X text 83 26 #43 Transitiony;
#X obj 158 76 == 43;
#X obj 148 140 del 1200;
#X obj 109 223 del 100;
#X obj 169 223 del 200;
#X obj 226 223 del 300;
#X obj 282 223 del 400;
#X obj 337 223 del 600;
#X obj 393 223 del 800;
#X obj 449 223 del 1000;
#X obj 505 223 del 1100;
#X msg 53 246 89 99;
#X msg 109 246 88 99;
#X msg 169 246 89 99;
#X msg 226 246 88 99;
#X msg 282 246 88 99;
#X msg 337 246 88 99;
#X msg 393 246 88 99;
#X msg 449 246 89 99;
#X msg 505 246 88 99;
#X connect 0 0 17 0;
#X connect 0 0 25 0;
#X connect 0 0 24 0;
#X connect 0 0 23 0;
#X connect 0 0 22 0;
#X connect 0 0 21 0;
#X connect 0 0 20 0;
#X connect 0 0 19 0;
#X connect 0 0 18 0;
#X connect 1 0 2 0;
#X connect 2 0 3 0;
#X connect 3 0 8 0;
#X connect 4 0 15 0;
#X connect 5 0 8 1;
#X connect 6 0 5 0;
#X connect 6 0 0 0;
#X connect 6 1 16 0;
#X connect 7 0 8 1;
#X connect 8 0 6 0;
#X connect 9 0 10 0;
#X connect 10 0 8 1;
#X connect 11 0 10 0;
#X connect 12 0 13 0;
#X connect 15 0 3 1;
#X connect 15 0 12 1;
#X connect 16 0 7 0;
#X connect 17 0 26 0;
#X connect 18 0 27 0;
#X connect 19 0 28 0;
#X connect 20 0 29 0;
#X connect 21 0 30 0;
#X connect 22 0 31 0;
#X connect 23 0 32 0;
#X connect 24 0 33 0;
#X connect 25 0 12 0;
#X connect 26 0 12 0;
#X connect 27 0 12 0;
#X connect 28 0 12 0;
#X connect 29 0 12 0;
#X connect 30 0 12 0;
#X connect 31 0 12 0;
#X connect 32 0 12 0;
#X connect 33 0 12 0;
