#N canvas 593 84 691 414 10;
#X obj 53 189 t b;
#X obj 75 55 r globaltick;
#X msg 75 76 1;
#X obj 75 97 spigot;
#X obj 158 55 r \$1;
#X msg 90 164 0;
#X obj 75 138 t b b;
#X msg 148 161 1;
#X obj 75 118 spigot;
#X obj 201 55 loadbang;
#X msg 201 76 1;
#X obj 256 55 r reset;
#X obj 53 287 spigot;
#X obj 53 308 s \$2;
#X obj 148 140 del 1200;
#X text 83 26 #44 Slowing;
#X obj 109 215 del 200;
#X obj 169 215 del 600;
#X obj 226 215 del 800;
#X msg 53 238 89 99;
#X msg 109 238 88 399;
#X msg 169 238 88 199;
#X msg 226 238 84 399;
#X obj 158 76 == 44;
#X connect 0 0 19 0;
#X connect 0 0 18 0;
#X connect 0 0 17 0;
#X connect 0 0 16 0;
#X connect 1 0 2 0;
#X connect 2 0 3 0;
#X connect 3 0 8 0;
#X connect 4 0 23 0;
#X connect 5 0 8 1;
#X connect 6 0 5 0;
#X connect 6 0 0 0;
#X connect 6 1 14 0;
#X connect 7 0 8 1;
#X connect 8 0 6 0;
#X connect 9 0 10 0;
#X connect 10 0 8 1;
#X connect 11 0 10 0;
#X connect 12 0 13 0;
#X connect 14 0 7 0;
#X connect 16 0 20 0;
#X connect 17 0 21 0;
#X connect 18 0 22 0;
#X connect 19 0 12 0;
#X connect 20 0 12 0;
#X connect 21 0 12 0;
#X connect 22 0 12 0;
#X connect 23 0 3 1;
#X connect 23 0 12 1;
