#N canvas 697 228 450 300 10;
#X obj 53 162 t b;
#X obj 75 28 r globaltick;
#X msg 75 49 1;
#X obj 75 70 spigot;
#X obj 158 28 r \$1;
#X msg 90 137 0;
#X obj 75 111 t b b;
#X msg 148 134 1;
#X obj 75 91 spigot;
#X obj 201 28 loadbang;
#X msg 201 49 1;
#X obj 256 28 r reset;
#X obj 53 260 spigot;
#X obj 53 281 s \$2;
#X obj 148 113 del 1200;
#X text 81 4 #45 Slowing DDG;
#X obj 109 188 del 400;
#X obj 169 188 del 800;
#X msg 53 211 86 399;
#X msg 109 211 86 399;
#X msg 169 211 79 399;
#X obj 158 49 == 45;
#X connect 0 0 18 0;
#X connect 0 0 16 0;
#X connect 0 0 17 0;
#X connect 1 0 2 0;
#X connect 2 0 3 0;
#X connect 3 0 8 0;
#X connect 4 0 21 0;
#X connect 5 0 8 1;
#X connect 6 0 5 0;
#X connect 6 0 0 0;
#X connect 6 1 14 0;
#X connect 7 0 8 1;
#X connect 8 0 6 0;
#X connect 9 0 10 0;
#X connect 10 0 8 1;
#X connect 11 0 10 0;
#X connect 12 0 13 0;
#X connect 14 0 7 0;
#X connect 16 0 19 0;
#X connect 17 0 20 0;
#X connect 18 0 12 0;
#X connect 19 0 12 0;
#X connect 20 0 12 0;
#X connect 21 0 3 1;
#X connect 21 0 12 1;
