#N canvas -8 -8 1366 725 10;
#X obj 53 162 t b;
#X obj 75 28 r globaltick;
#X msg 75 49 1;
#X obj 75 70 spigot;
#X obj 158 28 r \$1;
#X msg 90 137 0;
#X obj 75 111 t b b;
#X msg 148 134 1;
#X obj 75 91 spigot;
#X obj 201 28 loadbang;
#X msg 201 49 1;
#X obj 256 28 r reset;
#X obj 53 260 spigot;
#X obj 53 281 s \$2;
#X text 81 4 #46 Transitiony;
#X obj 148 113 del 2000;
#X obj 158 49 == 46;
#X obj 109 208 del 100;
#X obj 169 208 del 200;
#X obj 226 208 del 300;
#X obj 282 208 del 600;
#X obj 337 208 del 1000;
#X obj 393 208 del 1400;
#X obj 449 208 del 1600;
#X obj 505 208 del 1700;
#X obj 559 208 del 1800;
#X obj 615 208 del 1900;
#X msg 53 231 79 99;
#X msg 109 231 86 99;
#X msg 169 231 88 99;
#X msg 226 231 86 99;
#X msg 282 231 79 99;
#X msg 337 231 79 99;
#X msg 393 231 79 99;
#X msg 449 231 79 99;
#X msg 505 231 86 99;
#X msg 559 231 88 99;
#X msg 615 231 86 99;
#X connect 0 0 17 0;
#X connect 0 0 26 0;
#X connect 0 0 25 0;
#X connect 0 0 24 0;
#X connect 0 0 23 0;
#X connect 0 0 22 0;
#X connect 0 0 21 0;
#X connect 0 0 20 0;
#X connect 0 0 19 0;
#X connect 0 0 18 0;
#X connect 0 0 27 0;
#X connect 1 0 2 0;
#X connect 2 0 3 0;
#X connect 3 0 8 0;
#X connect 4 0 16 0;
#X connect 5 0 8 1;
#X connect 6 0 5 0;
#X connect 6 0 0 0;
#X connect 6 1 15 0;
#X connect 7 0 8 1;
#X connect 8 0 6 0;
#X connect 9 0 10 0;
#X connect 10 0 8 1;
#X connect 11 0 10 0;
#X connect 12 0 13 0;
#X connect 15 0 7 0;
#X connect 16 0 3 1;
#X connect 16 0 12 1;
#X connect 17 0 28 0;
#X connect 18 0 29 0;
#X connect 19 0 30 0;
#X connect 20 0 31 0;
#X connect 21 0 32 0;
#X connect 22 0 33 0;
#X connect 23 0 34 0;
#X connect 24 0 35 0;
#X connect 25 0 36 0;
#X connect 26 0 37 0;
#X connect 27 0 12 0;
#X connect 28 0 12 0;
#X connect 29 0 12 0;
#X connect 30 0 12 0;
#X connect 31 0 12 0;
#X connect 32 0 12 0;
#X connect 33 0 12 0;
#X connect 34 0 12 0;
#X connect 35 0 12 0;
#X connect 36 0 12 0;
#X connect 37 0 12 0;
