#N canvas 705 166 450 405 10;
#X obj 53 189 t b;
#X obj 75 55 r globaltick;
#X msg 75 76 1;
#X obj 75 97 spigot;
#X obj 158 55 r \$1;
#X msg 90 164 0;
#X obj 75 138 t b b;
#X msg 148 161 1;
#X obj 75 118 spigot;
#X obj 201 55 loadbang;
#X msg 201 76 1;
#X obj 256 55 r reset;
#X obj 53 287 spigot;
#X obj 53 308 s \$2;
#X obj 158 76 == 6;
#X text 79 33 # 6 whole notes;
#X obj 148 140 del 3200;
#X obj 109 218 del 1600;
#X msg 53 241 84 1599;
#X msg 109 241 84 1599;
#X connect 0 0 17 0;
#X connect 0 0 18 0;
#X connect 1 0 2 0;
#X connect 2 0 3 0;
#X connect 3 0 8 0;
#X connect 4 0 14 0;
#X connect 5 0 8 1;
#X connect 6 0 5 0;
#X connect 6 0 0 0;
#X connect 6 1 16 0;
#X connect 7 0 8 1;
#X connect 8 0 6 0;
#X connect 9 0 10 0;
#X connect 10 0 8 1;
#X connect 11 0 10 0;
#X connect 12 0 13 0;
#X connect 14 0 3 1;
#X connect 14 0 12 1;
#X connect 16 0 7 0;
#X connect 17 0 19 0;
#X connect 18 0 12 0;
#X connect 19 0 12 0;
