#N canvas 466 50 450 454 10;
#X obj 53 189 t b;
#X obj 75 55 r globaltick;
#X msg 75 76 1;
#X obj 75 97 spigot;
#X obj 158 55 r \$1;
#X msg 90 164 0;
#X obj 75 138 t b b;
#X msg 148 161 1;
#X obj 75 118 spigot;
#X obj 201 55 loadbang;
#X msg 201 76 1;
#X obj 256 55 r reset;
#X obj 53 287 spigot;
#X obj 53 308 s \$2;
#X obj 148 140 del 3600;
#X text 79 32 # 8 long notes again;
#X obj 158 76 == 8;
#X obj 109 220 del 2400;
#X obj 165 220 del 4000;
#X msg 53 243 79 2400;
#X msg 165 243 77 1600;
#X msg 109 243 77 1599;
#X connect 0 0 19 0;
#X connect 0 0 18 0;
#X connect 0 0 17 0;
#X connect 1 0 2 0;
#X connect 2 0 3 0;
#X connect 3 0 8 0;
#X connect 4 0 16 0;
#X connect 5 0 8 1;
#X connect 6 0 5 0;
#X connect 6 0 0 0;
#X connect 6 1 14 0;
#X connect 7 0 8 1;
#X connect 8 0 6 0;
#X connect 9 0 10 0;
#X connect 10 0 8 1;
#X connect 11 0 10 0;
#X connect 12 0 13 0;
#X connect 14 0 7 0;
#X connect 16 0 3 1;
#X connect 16 0 12 1;
#X connect 17 0 21 0;
#X connect 18 0 20 0;
#X connect 19 0 12 0;
#X connect 20 0 12 0;
#X connect 21 0 12 0;
